<svg xmlns="http://www.w3.org/2000/svg" xmlns:xlink="http://www.w3.org/1999/xlink" viewBox="0 0 370.1 666.6"><defs><style>.cls-1,.cls-10,.cls-6{fill:none;}.cls-2{isolation:isolate;}.cls-3{clip-path:url(#clip-path);}.cls-4{clip-path:url(#clip-path-2);}.cls-5{fill:url(#linear-gradient);}.cls-10,.cls-6{stroke:#707070;}.cls-7{fill:#d3daeb;mix-blend-mode:multiply;}.cls-8{opacity:0.5;}.cls-9{fill:#9fbcff;}.cls-10{stroke-width:1.07px;}</style><clipPath id="clip-path"><rect class="cls-1" x="-243.3" y="-165.4" width="768" height="1024"/></clipPath><clipPath id="clip-path-2"><rect class="cls-1" x="-2.6" y="0.2" width="375" height="667"/></clipPath><linearGradient id="linear-gradient" x1="995.77" y1="808" x2="997.06" y2="806.64" gradientTransform="matrix(543, 0, 0, -706, -540880.88, 570303.38)" gradientUnits="userSpaceOnUse"><stop offset="0" stop-color="#aaa0b4"/><stop offset="0.4" stop-color="#61558f"/><stop offset="0.71" stop-color="#713476"/><stop offset="1" stop-color="#5e3dcb"/></linearGradient></defs><g class="cls-2"><g id="Layer_1" data-name="Layer 1"><g class="cls-3"><g class="cls-4"><g id="Mask_Group_3" data-name="Mask Group 3"><g id="Group_4" data-name="Group 4"><g id="Rectangle_2" data-name="Rectangle 2"><rect class="cls-5" x="-85.6" y="0.2" width="543" height="706"/><rect class="cls-6" x="-85.1" y="0.7" width="542" height="705"/></g><path id="Rectangle_10" data-name="Rectangle 10" class="cls-7" d="M-40.6,409.2h187a9,9,0,0,1,9,9h0a9,9,0,0,1-9,9h-187a9,9,0,0,1-9-9h0A9,9,0,0,1-40.6,409.2Z"/><path id="Rectangle_11" data-name="Rectangle 11" class="cls-7" d="M234.4,115.2h187a9,9,0,0,1,9,9h0a9,9,0,0,1-9,9h-187a9,9,0,0,1-9-9h0A9,9,0,0,1,234.4,115.2Z"/><path id="Rectangle_12" data-name="Rectangle 12" class="cls-7" d="M222.4,604.2h187a9,9,0,0,1,9,9h0a9,9,0,0,1-9,9h-187a9,9,0,0,1-9-9h0A9,9,0,0,1,222.4,604.2Z"/><g id="Ellipse_18" data-name="Ellipse 18" class="cls-8"><circle class="cls-9" cx="23.1" cy="266.9" r="76.5"/><circle class="cls-10" cx="23.1" cy="266.9" r="76"/></g><g id="Ellipse_18-2" data-name="Ellipse 18" class="cls-8"><circle class="cls-9" cx="379.5" cy="3.1" r="76.5"/><circle class="cls-10" cx="379.5" cy="3.1" r="76"/></g><g id="Ellipse_14" data-name="Ellipse 14" class="cls-8"><circle class="cls-9" cx="264.9" cy="477.7" r="50.5"/><circle class="cls-6" cx="264.9" cy="477.7" r="50"/></g><g id="Ellipse_21" data-name="Ellipse 21" class="cls-8"><circle class="cls-9" cx="77.9" cy="587.7" r="25.5"/><circle class="cls-6" cx="77.9" cy="587.7" r="25"/></g><g id="Ellipse_20" data-name="Ellipse 20" class="cls-8"><circle class="cls-9" cx="285.4" cy="229.2" r="20"/><circle class="cls-6" cx="285.4" cy="229.2" r="19.5"/></g><g id="Ellipse_19" data-name="Ellipse 19" class="cls-8"><circle class="cls-9" cx="125.3" cy="86.5" r="29"/><circle class="cls-6" cx="125.3" cy="86.5" r="28.5"/></g></g></g></g></g></g></g></svg>