<svg xmlns="http://www.w3.org/2000/svg" xmlns:xlink="http://www.w3.org/1999/xlink" viewBox="0 0 787 1023"><defs><style>.cls-1,.cls-10,.cls-11,.cls-5,.cls-8{fill:none;}.cls-2{isolation:isolate;}.cls-3{clip-path:url(#clip-path);}.cls-4{fill:url(#linear-gradient);}.cls-10,.cls-11,.cls-5,.cls-8{stroke:#707070;}.cls-5{stroke-width:1px;}.cls-6{opacity:0.5;}.cls-7{fill:#9fbcff;}.cls-8{stroke-width:0.4px;}.cls-9{fill:#d3daeb;mix-blend-mode:multiply;}.cls-10{stroke-width:0.68px;}.cls-11{stroke-width:0.71px;}</style><clipPath id="clip-path"><rect class="cls-1" x="-0.5" y="-6.21" width="789" height="1029.71"/></clipPath><linearGradient id="linear-gradient" x1="54.17" y1="1136.54" x2="55.46" y2="1135.17" gradientTransform="matrix(788, 0, 0, -1024, -42823.47, 1163596.56)" gradientUnits="userSpaceOnUse"><stop offset="0" stop-color="#aaa0b4"/><stop offset="0.4" stop-color="#61558f"/><stop offset="0.71" stop-color="#713476"/><stop offset="1" stop-color="#5e3dcb"/></linearGradient></defs><g class="cls-2"><g id="Layer_1" data-name="Layer 1"><g class="cls-3"><g id="Mask_Group_2" data-name="Mask Group 2"><g id="Group_3" data-name="Group 3"><g id="Rectangle_3" data-name="Rectangle 3"><rect class="cls-4" x="-0.5" y="-6.21" width="788" height="1029.71"/><rect class="cls-5" y="-5.71" width="787" height="1028.71"/></g><g id="Ellipse_12" data-name="Ellipse 12" class="cls-6"><ellipse class="cls-7" cx="163.8" cy="831.03" rx="74.7" ry="75.12"/><ellipse class="cls-8" cx="163.8" cy="831.03" rx="74.5" ry="74.92"/></g><path id="Rectangle_9" data-name="Rectangle 9" class="cls-9" d="M-.5,588.08h302a20.12,20.12,0,0,1,20,20.12v5a20.11,20.11,0,0,1-20,20.11H-.5a20.11,20.11,0,0,1-20-20.11v-5A20.05,20.05,0,0,1-.5,588.08Z"/><path id="Rectangle_9-2" data-name="Rectangle 9" class="cls-9" d="M273.8,130.14H427.6a10.28,10.28,0,0,1,10.2,10.26v2.51a10.28,10.28,0,0,1-10.2,10.26H273.8a10.28,10.28,0,0,1-10.2-10.26V140.4A10.21,10.21,0,0,1,273.8,130.14Z"/><path id="Rectangle_9-3" data-name="Rectangle 9" class="cls-9" d="M562.3,892.07H716.1a10.28,10.28,0,0,1,10.2,10.26v2.51a10.28,10.28,0,0,1-10.2,10.26H562.3a10.28,10.28,0,0,1-10.2-10.26v-2.51A10.28,10.28,0,0,1,562.3,892.07Z"/><path id="Rectangle_8" data-name="Rectangle 8" class="cls-9" d="M452,288.42H685A10.53,10.53,0,0,1,695.5,299h0A10.53,10.53,0,0,1,685,309.54H452A10.53,10.53,0,0,1,441.5,299h0A10.53,10.53,0,0,1,452,288.42Z"/><g id="Ellipse_13" data-name="Ellipse 13" class="cls-6"><ellipse class="cls-7" cx="556.1" cy="779.65" rx="34.4" ry="34.59"/><ellipse class="cls-10" cx="556.1" cy="779.65" rx="34.1" ry="34.29"/></g><g id="Ellipse_15" data-name="Ellipse 15" class="cls-6"><ellipse class="cls-7" cx="651.2" cy="552.89" rx="79.9" ry="80.35"/><ellipse class="cls-11" cx="651.2" cy="552.89" rx="79.6" ry="80.04"/></g><g id="Ellipse_16" data-name="Ellipse 16" class="cls-6"><ellipse class="cls-7" cx="121.1" cy="138.29" rx="72.5" ry="72.9"/></g><g id="Ellipse_17" data-name="Ellipse 17" class="cls-6"><ellipse class="cls-7" cx="651" cy="92.83" rx="50.5" ry="50.78"/><ellipse class="cls-5" cx="651" cy="92.83" rx="50" ry="50.28"/></g><g id="Ellipse_22" data-name="Ellipse 22" class="cls-6"><ellipse class="cls-7" cx="278.5" cy="416.13" rx="69" ry="69.39"/><ellipse class="cls-5" cx="278.5" cy="416.13" rx="68.5" ry="68.88"/></g></g></g></g></g></g></svg>