<svg xmlns="http://www.w3.org/2000/svg" xmlns:xlink="http://www.w3.org/1999/xlink" viewBox="0 0 1920.9 1081.85"><defs><style>.cls-1,.cls-10,.cls-11,.cls-13,.cls-14,.cls-5{fill:none;}.cls-2{isolation:isolate;}.cls-3{clip-path:url(#clip-path);}.cls-4{fill:url(#linear-gradient);}.cls-10,.cls-11,.cls-13,.cls-14,.cls-5{stroke:#707070;}.cls-6{opacity:0.5;}.cls-7{fill:#9fbcff;}.cls-12,.cls-8{fill:#d3daeb;}.cls-9{fill:url(#linear-gradient-2);}.cls-10{stroke-width:1.61px;}.cls-11{stroke-width:1px;}.cls-12{mix-blend-mode:multiply;}.cls-13{stroke-width:0.58px;}.cls-14{stroke-width:0.47px;}</style><clipPath id="clip-path"><rect class="cls-1" x="-6643.3" y="-8275.14" width="1919" height="1081"/></clipPath><linearGradient id="linear-gradient" x1="-1000.67" y1="1008.05" x2="-999.38" y2="1006.69" gradientTransform="matrix(1920, 0, 0, -1080, 1921033.23, 1088438.38)" gradientUnits="userSpaceOnUse"><stop offset="0" stop-color="#aaa0b4"/><stop offset="0.4" stop-color="#61558f"/><stop offset="0.71" stop-color="#713476"/><stop offset="1" stop-color="#5e3dcb"/></linearGradient><linearGradient id="linear-gradient-2" x1="-999.66" y1="1008.56" x2="-997.42" y2="1006.2" gradientTransform="matrix(788, 0, 0, -1024, 787776.31, 1032044.61)" xlink:href="#linear-gradient"/></defs><g class="cls-2"><g id="Layer_1" data-name="Layer 1"><g class="cls-3"><g id="Mask_Group_1" data-name="Mask Group 1"><g id="Group_1" data-name="Group 1"><g id="Group_2" data-name="Group 2"><g id="Rectangle_1" data-name="Rectangle 1"><rect class="cls-4" x="80.7" y="-34.14" width="1920" height="1080"/><rect class="cls-5" x="81.2" y="-33.64" width="1919" height="1079"/></g><g id="Ellipse_1" data-name="Ellipse 1" class="cls-6"><circle class="cls-7" cx="401.2" cy="-130.64" r="215.5"/><circle class="cls-5" cx="401.2" cy="-130.64" r="215"/></g><g id="Ellipse_2" data-name="Ellipse 2" class="cls-6"><circle class="cls-7" cx="553.7" cy="395.86" r="86"/><circle class="cls-5" cx="553.7" cy="395.86" r="85.5"/></g><g id="Ellipse_3" data-name="Ellipse 3" class="cls-6"><circle class="cls-7" cx="1660.7" cy="-3.14" r="158"/><circle class="cls-5" cx="1660.7" cy="-3.14" r="157.5"/></g><g id="Ellipse_7" data-name="Ellipse 7" class="cls-6"><circle class="cls-7" cx="1753.2" cy="623.36" r="65.5"/><circle class="cls-5" cx="1753.2" cy="623.36" r="65"/></g><g id="Ellipse_23" data-name="Ellipse 23" class="cls-6"><circle class="cls-7" cx="1935.2" cy="980.36" r="65.5"/><circle class="cls-5" cx="1935.2" cy="980.36" r="65"/></g><g id="Ellipse_4" data-name="Ellipse 4" class="cls-6"><circle class="cls-7" cx="1373.7" cy="896.86" r="68"/><circle class="cls-5" cx="1373.7" cy="896.86" r="67.5"/></g><g id="Ellipse_5" data-name="Ellipse 5" class="cls-6"><circle class="cls-7" cx="1106.2" cy="584.36" r="188.5"/><circle class="cls-5" cx="1106.2" cy="584.36" r="188"/></g><g id="Ellipse_8" data-name="Ellipse 8" class="cls-6"><circle class="cls-7" cx="847.2" cy="34.36" r="50.5"/><circle class="cls-5" cx="847.2" cy="34.36" r="50"/></g><g id="Ellipse_9" data-name="Ellipse 9" class="cls-6"><circle class="cls-7" cx="161.2" cy="778.36" r="50.5"/><circle class="cls-5" cx="161.2" cy="778.36" r="50"/></g><g id="Ellipse_6" data-name="Ellipse 6" class="cls-6"><circle class="cls-7" cx="583.7" cy="938.86" r="51"/><circle class="cls-5" cx="583.7" cy="938.86" r="50.5"/></g><path id="Rectangle_4" data-name="Rectangle 4" class="cls-8" d="M231.7,578.86h302a20.06,20.06,0,0,1,20,20v5a20.06,20.06,0,0,1-20,20h-302a20.06,20.06,0,0,1-20-20v-5A20.06,20.06,0,0,1,231.7,578.86Z"/><path id="Rectangle_5" data-name="Rectangle 5" class="cls-8" d="M1452.2,374.86h225a10.5,10.5,0,0,1,10.5,10.5h0a10.5,10.5,0,0,1-10.5,10.5h-225a10.5,10.5,0,0,1-10.5-10.5h0A10.5,10.5,0,0,1,1452.2,374.86Z"/><path id="Rectangle_6" data-name="Rectangle 6" class="cls-8" d="M1012.2,909.86h141a10.5,10.5,0,0,1,10.5,10.5h0a10.5,10.5,0,0,1-10.5,10.5h-141a10.5,10.5,0,0,1-10.5-10.5h0A10.5,10.5,0,0,1,1012.2,909.86Z"/><path id="Rectangle_7" data-name="Rectangle 7" class="cls-8" d="M1043.2,13.86h372a10.5,10.5,0,0,1,10.5,10.5h0a10.5,10.5,0,0,1-10.5,10.5h-372a10.5,10.5,0,0,1-10.5-10.5h0A10.5,10.5,0,0,1,1043.2,13.86Z"/></g></g></g></g><g id="Mask_Group_2" data-name="Mask Group 2"><g id="Group_3" data-name="Group 3"><g id="Rectangle_3" data-name="Rectangle 3"><rect class="cls-9" x="-1.2" y="-8.63" width="1923.3" height="1090.99"/><rect class="cls-10" y="-8.02" width="1920.9" height="1089.87"/></g><g id="Ellipse_12" data-name="Ellipse 12" class="cls-6"><ellipse class="cls-7" cx="1170.1" cy="803.25" rx="188.5" ry="190.35"/><ellipse class="cls-11" cx="1170.1" cy="803.25" rx="188" ry="189.84"/></g><path id="Rectangle_9" data-name="Rectangle 9" class="cls-12" d="M-31.8,713.78h302c11,0,20,7.67,20,17.07v4.24c0,9.39-9,17.06-20,17.06h-302c-11,0-20-7.67-20-17.06v-4.24C-51.8,721.45-42.9,713.78-31.8,713.78Z"/><path id="Rectangle_9-2" data-name="Rectangle 9" class="cls-12" d="M1643.7,758.62h302a20.15,20.15,0,0,1,20,20.19v5.05a20.16,20.16,0,0,1-20,20.2h-302a20.16,20.16,0,0,1-20-20.2v-5.05A20.09,20.09,0,0,1,1643.7,758.62Z"/><path id="Rectangle_9-3" data-name="Rectangle 9" class="cls-12" d="M1663.3,102.35h302c11,0,20,7.07,20,15.65v3.94c0,8.58-9,15.65-20,15.65h-302c-11,0-20-7.07-20-15.65V118C1643.3,109.32,1652.2,102.35,1663.3,102.35Z"/><path id="Rectangle_8" data-name="Rectangle 8" class="cls-12" d="M420.4,322.89h233a10.55,10.55,0,0,1,10.5,10.6h0a10.55,10.55,0,0,1-10.5,10.6h-233a10.55,10.55,0,0,1-10.5-10.6h0A10.55,10.55,0,0,1,420.4,322.89Z"/><g id="Ellipse_13" data-name="Ellipse 13" class="cls-6"><ellipse class="cls-7" cx="531.9" cy="895.75" rx="50.5" ry="50.99"/><ellipse class="cls-11" cx="531.9" cy="895.75" rx="50" ry="50.49"/></g><g id="Ellipse_15" data-name="Ellipse 15" class="cls-6"><ellipse class="cls-7" cx="703.9" cy="598.87" rx="112.5" ry="113.6"/><ellipse class="cls-11" cx="703.9" cy="598.87" rx="112" ry="113.1"/></g><g id="Ellipse_16" data-name="Ellipse 16" class="cls-6"><ellipse class="cls-7" cx="1689.3" cy="385.09" rx="123.4" ry="124.61"/><ellipse class="cls-13" cx="1689.3" cy="385.09" rx="123.2" ry="124.41"/></g><g id="Ellipse_16-2" data-name="Ellipse 16" class="cls-6"><ellipse class="cls-7" cx="1189.1" cy="313.7" rx="100.9" ry="101.89"/><ellipse class="cls-14" cx="1189.1" cy="313.7" rx="100.7" ry="101.69"/></g><g id="Ellipse_17" data-name="Ellipse 17" class="cls-6"><ellipse class="cls-7" cx="642.9" cy="140.42" rx="50.5" ry="50.99"/><ellipse class="cls-11" cx="642.9" cy="140.42" rx="50" ry="50.49"/></g><g id="Ellipse_22" data-name="Ellipse 22" class="cls-6"><ellipse class="cls-7" cx="270.4" cy="465.07" rx="69" ry="69.68"/><ellipse class="cls-11" cx="270.4" cy="465.07" rx="68.5" ry="69.17"/></g></g></g></g></g></svg>